<svg width="83" height="89" xmlns="http://www.w3.org/2000/svg">
 <g>
  <title>Layer 1</title>
  <g id="svg_6">
   <path fill="#ffffff" id="svg_1" d="m22.583,29.116l0,-8.543l-0.218,0c-1.301,-8.043 -3.996,-20.073 -8.469,-20.073c-4.472,0 -7.167,12.03 -8.469,20.073l-0.218,0l0,8.543l-4.089,7.317l-0.62,0l0,45.128l3.457,0l-0.723,0.965l-2.733,0l0,5.974l26.791,0l0,-5.974l-2.733,0l-0.724,-0.965l3.457,0l0,-45.128l-0.62,0l-4.089,-7.317zm-8.733,-25.621c1.518,0.49 3.979,8.269 5.472,17.078l-10.852,0c1.493,-8.809 3.949,-16.588 5.38,-17.078zm-5.641,20.078l11.374,0l0,4.435l-11.374,0l0,-4.435zm-0.619,7.434l12.613,0l3.032,5.426l-18.678,0l3.033,-5.426zm-0.606,51.519l0.724,-0.965l12.377,0l0.724,0.965l-13.825,0zm17.307,-3.965l-2.707,0l-15.377,0l-2.706,0l0,-39.128l20.791,0l0,39.128l-0.001,0z"/>
   <path fill="#ffffff" id="svg_2" d="m50.281,29.116l0,-8.543l-0.218,0c-1.302,-8.043 -3.996,-20.073 -8.469,-20.073c-4.472,0 -7.167,12.03 -8.469,20.073l-0.218,0l0,8.543l-4.089,7.317l-0.62,0l0,45.128l3.456,0l-0.724,0.965l-2.732,0l0,5.974l26.79,0l0,-5.974l-2.732,0l-0.724,-0.965l3.456,0l0,-45.128l-0.62,0l-4.087,-7.317zm-8.733,-25.621c1.518,0.49 3.979,8.269 5.472,17.078l-10.852,0c1.491,-8.809 3.948,-16.587 5.38,-17.078zm-5.641,20.078l11.373,0l0,4.435l-11.373,0l0,-4.435zm-0.619,7.434l12.612,0l3.032,5.426l-18.676,0l3.032,-5.426zm-0.607,51.519l0.724,-0.965l12.378,0l0.724,0.965l-13.826,0zm17.308,-3.965l-2.706,0l-15.378,0l-2.706,0l0,-39.128l20.79,0l0,39.128z"/>
   <path fill="#ffffff" id="svg_3" d="m77.979,29.116l0,-8.543l-0.218,0c-1.302,-8.043 -3.996,-20.073 -8.469,-20.073c-4.472,0 -7.167,12.03 -8.469,20.073l-0.218,0l0,8.543l-4.089,7.317l-0.62,0l0,45.128l3.457,0l-0.724,0.965l-2.733,0l0,5.974l26.791,0l0,-5.974l-2.733,0l-0.724,-0.965l3.457,0l0,-45.128l-0.62,0l-4.088,-7.317zm-8.734,-25.621c1.518,0.49 3.98,8.269 5.473,17.078l-10.852,0c1.492,-8.809 3.948,-16.587 5.379,-17.078zm-5.64,20.078l11.374,0l0,4.435l-11.374,0l0,-4.435zm-0.619,7.434l12.613,0l3.032,5.426l-18.678,0l3.033,-5.426zm-0.606,51.519l0.724,-0.965l12.377,0l0.724,0.965l-13.825,0zm17.307,-3.965l-2.707,0l-15.377,0l-2.707,0l0,-39.128l20.791,0l0,39.128z"/>
  </g>
 </g>
</svg>