<?xml version="1.0" standalone="no"?>
<!DOCTYPE svg PUBLIC "-//W3C//DTD SVG 20010904//EN"
 "http://www.w3.org/TR/2001/REC-SVG-20010904/DTD/svg10.dtd">
<svg version="1.0" xmlns="http://www.w3.org/2000/svg"
 width="700.000000pt" height="700.000000pt" viewBox="0 0 700.000000 700.000000"
 preserveAspectRatio="xMidYMid meet">
<metadata>
Created by potrace 1.11, written by Peter Selinger 2001-2013
</metadata>
<g transform="translate(0.000000,700.000000) scale(0.100000,-0.100000)"
fill="#000000" stroke="none">
<path d="M3285 6894 c-210 -20 -278 -29 -395 -50 -871 -159 -1641 -649 -2160
-1374 -271 -379 -468 -833 -560 -1290 -53 -261 -64 -379 -64 -680 0 -301 11
-419 64 -680 204 -1017 876 -1892 1811 -2360 361 -182 729 -290 1154 -341 144
-18 586 -18 730 0 425 51 793 159 1154 341 935 468 1607 1343 1811 2360 53
261 64 379 64 680 0 301 -11 419 -64 680 -205 1020 -878 1894 -1818 2364 -350
174 -700 279 -1104 331 -116 15 -534 28 -623 19z m-380 -1650 c253 -74 433
-257 496 -502 19 -74 20 -115 20 -1242 0 -1126 -1 -1168 -20 -1242 -63 -245
-244 -428 -496 -502 -66 -19 -100 -20 -659 -24 -419 -2 -597 0 -616 8 -39 16
-50 49 -50 143 l0 82 -67 13 c-200 37 -371 187 -438 385 l-25 76 0 1174 c0
1163 0 1176 21 1243 65 213 240 365 467 404 26 4 328 7 672 6 598 -2 628 -3
695 -22z m2525 2 c198 -52 369 -192 455 -371 69 -143 65 -67 65 -1375 0 -1308
4 -1232 -65 -1375 -86 -179 -257 -319 -455 -371 -58 -16 -136 -18 -678 -21
-699 -4 -717 -3 -859 67 -145 72 -257 210 -298 368 -14 57 -16 182 -16 1221
l0 1157 25 80 c64 200 239 360 435 395 l71 12 0 89 c0 86 1 91 30 119 l29 30
598 -4 c528 -3 606 -5 663 -21z"/>
<path d="M1516 5099 c-113 -27 -224 -121 -279 -237 -30 -62 -32 -75 -32 -172
0 -95 3 -111 30 -170 l30 -65 5 155 c5 142 8 160 33 215 50 107 140 179 255
204 70 15 1150 15 1242 0 176 -28 323 -157 375 -329 12 -42 16 -95 15 -222 0
-93 2 -168 5 -168 15 0 57 121 67 192 24 168 -30 328 -151 449 -74 74 -180
132 -270 149 -68 13 -1271 12 -1325 -1z"/>
<path d="M1532 4859 c-66 -33 -97 -87 -97 -169 0 -82 31 -136 97 -169 l43 -21
5 127 c3 71 9 135 13 144 5 9 19 21 33 28 34 15 1082 16 1153 0 69 -15 123
-56 155 -120 24 -49 26 -63 26 -177 0 -81 3 -121 10 -117 6 4 22 30 37 58 37
71 38 188 4 259 -30 62 -86 119 -147 149 l-49 24 -620 3 c-617 2 -620 2 -663
-19z"/>
<path d="M1730 4575 l0 -75 515 0 516 0 24 25 c14 13 25 36 25 50 0 14 -11 37
-25 50 l-24 25 -516 0 -515 0 0 -75z"/>
<path d="M1430 4356 c0 -48 9 -55 100 -76 49 -10 1237 -14 1264 -4 11 4 16 19
16 44 l0 39 -32 -10 c-49 -14 -1154 -12 -1220 2 -29 6 -70 20 -90 30 l-38 19
0 -44z"/>
<path d="M1215 4259 c46 -147 177 -263 333 -292 25 -5 32 -3 32 9 0 8 11 26
25 39 l24 25 587 0 c645 0 650 0 767 62 l57 31 0 48 0 48 -50 -34 c-27 -18
-80 -44 -117 -57 l-68 -23 -630 0 c-566 0 -636 2 -692 17 -79 22 -153 59 -222
110 -48 36 -52 38 -46 17z"/>
<path d="M3190 4058 c-99 -88 -231 -147 -375 -168 -39 -5 -294 -10 -572 -10
l-503 0 -5 -22 c-3 -13 -4 -219 -3 -458 l3 -435 38 -3 37 -3 0 283 c0 321 0
323 72 334 46 8 78 34 78 64 0 34 29 79 53 85 12 3 204 6 427 8 l405 2 69 27
c133 51 238 145 298 266 17 34 29 64 27 66 -2 2 -24 -14 -49 -36z"/>
<path d="M1200 3651 c0 -371 5 -405 75 -506 60 -87 171 -160 266 -172 l39 -6
0 419 0 419 -67 13 c-89 17 -173 56 -250 115 l-63 48 0 -330z"/>
<path d="M3242 3803 c-29 -40 -130 -117 -205 -155 -127 -64 -173 -69 -568 -68
l-356 1 -29 -46 c-15 -25 -50 -60 -76 -77 l-48 -30 2 -232 3 -231 420 0 c465
0 480 2 598 63 139 72 251 225 276 379 7 39 10 145 9 248 l-3 180 -23 -32z"/>
<path d="M3220 3015 c-77 -79 -179 -141 -301 -181 -48 -16 -108 -19 -504 -24
l-450 -5 -3 -231 -2 -231 49 -30 c29 -19 59 -48 73 -72 l23 -41 355 0 c384 0
409 3 519 56 83 40 192 153 235 243 47 97 57 174 54 384 l-3 178 -45 -46z"/>
<path d="M1200 2888 c0 -164 34 -251 135 -347 59 -56 135 -96 203 -107 l42 -7
0 190 0 190 -79 17 c-95 20 -187 65 -253 124 l-48 44 0 -104z"/>
<path d="M1736 2801 c-3 -5 -5 -212 -5 -460 l1 -451 528 0 c308 0 550 4 581
10 30 5 88 26 129 47 116 56 233 185 265 292 6 21 0 18 -44 -20 -74 -64 -165
-116 -256 -146 l-80 -27 -421 -4 -421 -3 -27 31 c-14 18 -26 44 -26 59 0 34
-24 56 -70 65 -19 3 -44 16 -57 28 -23 21 -23 22 -23 305 l0 283 -34 0 c-19 0
-37 -4 -40 -9z"/>
<path d="M1215 2419 c45 -146 179 -263 333 -292 l32 -6 0 74 c0 73 0 75 -27
80 -135 28 -228 68 -304 133 -38 33 -41 34 -34 11z"/>
<path d="M4270 4650 l0 -460 35 0 35 0 0 279 c0 266 1 279 21 305 13 17 34 28
60 32 46 8 79 43 79 85 0 18 9 35 27 49 27 21 31 21 443 18 387 -4 419 -6 482
-25 95 -30 202 -89 264 -146 30 -27 54 -44 54 -38 0 6 -14 39 -31 73 -43 85
-134 178 -218 222 -126 66 -127 66 -718 66 l-533 0 0 -460z"/>
<path d="M4057 4869 c-134 -32 -274 -158 -303 -274 l-7 -28 54 41 c30 23 79
52 109 66 49 22 80 31 173 51 27 5 27 7 27 80 0 41 -3 75 -7 74 -5 -1 -25 -5
-46 -10z"/>
<path d="M4625 4779 c-10 -31 -62 -85 -95 -99 l-30 -12 0 -239 0 -238 448 -3
447 -3 80 -27 c104 -36 192 -89 267 -161 l60 -59 -4 224 c-4 210 -5 227 -29
289 -49 127 -149 239 -266 298 -94 47 -135 51 -514 51 -353 0 -358 0 -364 -21z"/>
<path d="M4019 4551 c-138 -44 -247 -166 -278 -309 -6 -29 -11 -94 -11 -143
l0 -90 50 43 c69 59 161 105 253 125 l77 16 0 189 c0 214 7 200 -91 169z"/>
<path d="M4270 3580 l0 -460 503 0 c276 0 534 -5 572 -10 145 -19 274 -77 376
-168 27 -24 49 -39 49 -33 0 7 -14 40 -31 74 -40 78 -144 182 -226 225 -108
57 -155 62 -584 62 l-386 0 -21 23 c-12 13 -22 35 -22 49 0 39 -36 78 -71 78
-20 0 -40 10 -60 29 l-29 29 0 281 0 281 -35 0 -35 0 0 -460z"/>
<path d="M4500 3803 l0 -238 41 -23 c24 -14 53 -44 72 -73 l30 -50 361 1 c338
1 366 0 436 -20 105 -30 214 -89 293 -161 l67 -61 0 194 c0 218 -11 285 -63
382 -72 135 -235 252 -385 275 -35 6 -241 10 -458 11 l-394 0 0 -237z"/>
<path d="M3999 4006 c-69 -28 -104 -52 -156 -109 -51 -55 -87 -124 -102 -195
-11 -55 -16 -682 -5 -682 3 0 27 18 52 40 61 54 171 107 255 122 l67 13 0 417
0 418 -27 0 c-16 0 -53 -11 -84 -24z"/>
<path d="M4042 3024 c-92 -24 -172 -79 -228 -155 -34 -46 -81 -149 -68 -149 3
0 26 18 52 39 58 48 129 84 213 108 59 17 114 18 694 18 708 0 692 1 808 -75
l57 -38 0 49 0 49 -60 30 c-119 60 -119 60 -752 60 -407 0 -584 3 -602 11 -13
7 -30 25 -37 40 -6 16 -14 29 -18 28 -3 0 -30 -7 -59 -15z"/>
<path d="M4075 2723 c-11 -2 -41 -11 -67 -19 -47 -15 -48 -16 -48 -59 l0 -43
63 27 62 26 593 3 c362 2 606 -1 628 -7 l35 -10 -3 42 -3 42 -620 1 c-341 1
-629 0 -640 -3z"/>
<path d="M5730 2560 c0 -174 -12 -249 -55 -336 -66 -135 -199 -232 -350 -254
-46 -7 -280 -10 -655 -8 l-585 3 -60 24 c-82 33 -164 115 -195 196 -21 54 -23
74 -21 209 1 131 0 147 -13 137 -24 -20 -55 -116 -62 -189 -16 -173 80 -337
246 -416 l65 -31 633 -3 c411 -2 654 1 690 8 90 16 195 72 267 141 165 158
211 400 116 609 l-21 45 0 -135z"/>
<path d="M5500 2519 c0 -168 -38 -252 -134 -298 -43 -21 -53 -22 -627 -22
l-584 0 -22 26 c-21 24 -23 36 -23 150 l0 124 -29 -10 c-17 -6 -48 -30 -70
-54 -47 -51 -61 -110 -41 -180 15 -55 83 -121 132 -130 18 -3 308 -5 643 -3
l610 3 54 30 c159 88 210 299 107 446 -15 22 -16 19 -16 -82z"/>
<path d="M4270 2425 l0 -75 514 0 515 0 20 26 c28 35 26 69 -4 99 l-24 25
-511 0 -510 0 0 -75z"/>
</g>
</svg>
