<svg width="96" height="38" xmlns="http://www.w3.org/2000/svg">
 <g>
  <title>Layer 1</title>
  <g id="svg_1">
   <path fill="#ffffff" id="svg_2" d="m41.529,16.27749l0.604,0c0.518,0 0.937,-0.419 0.937,-0.936l0,-6.555l0,-6.554c0,-0.517 -0.419,-0.936 -0.937,-0.936l-14.817,0c-0.369,0 -0.704,0.216 -0.854,0.554l-2.685,6l-22.84,0c-0.518,0 -0.937,0.418 -0.937,0.936l0,13.965c0,0.303 0.147,0.588 0.396,0.764c0.16,0.113 0.349,0.172 0.541,0.172c0.105,0 0.21,-0.018 0.313,-0.054l16.67,-5.897l-3.229,11.395c-0.081,0.281 -0.023,0.586 0.153,0.818c0.177,0.234 0.454,0.371 0.747,0.371l5.374,0c0.416,0 0.781,-0.273 0.898,-0.67l2.086,-7.092c1.677,1.014 3.288,1.527 4.814,1.527c0.59,0 1.169,-0.074 1.734,-0.229c1.717,-0.467 2.948,-1.555 3.749,-2.521c2.411,6.926 6.562,10.283 6.78,10.455c0.169,0.133 0.374,0.201 0.58,0.201c0.184,0 0.368,-0.057 0.528,-0.166l5.006,-3.422c0.241,-0.166 0.39,-0.438 0.406,-0.727c0.016,-0.291 -0.104,-0.584 -0.326,-0.775c-4.358,-3.733 -5.429,-8.629 -5.691,-10.624zm-13.605,-13.108l13.272,0l0,4.682l-15.367,0l2.095,-4.682zm-7.659,25.28l-3.436,0l3.251,-11.479l1.96,-0.693l1.806,0l-3.581,12.172zm9.742,-6.399c-1.619,0.437 -3.472,-0.029 -5.507,-1.361l1.297,-4.412l1.579,0c-0.349,1.289 -0.275,3.402 1.756,5.223c0.178,0.16 0.401,0.238 0.625,0.238c0.257,0 0.512,-0.105 0.698,-0.312c0.345,-0.385 0.313,-0.977 -0.073,-1.322c-1.929,-1.729 -1.174,-3.471 -1.077,-3.671c0.024,-0.051 0.026,-0.104 0.043,-0.156l3.637,0c0.157,0.972 0.348,1.902 0.574,2.779c-0.382,0.682 -1.543,2.449 -3.552,2.994zm-8.127,-7.646c-0.106,0 -0.212,0.019 -0.313,0.055l-19.694,6.967l0,-11.703l22.512,0l16.812,0l0,4.681l-0.697,0l-0.012,0l-18.608,0zm19.803,15.465c-1.425,-1.357 -5.458,-5.812 -6.805,-13.592l4.758,0c0.219,2.008 1.187,7.063 5.473,11.252l-3.426,2.34z"/>
   <path fill="#ffffff" id="svg_3" d="m94.564,7.85149l-3.746,0c-0.517,0 -0.937,0.418 -0.937,0.936l0,0.936l-4.681,0l0,-5.088c0,-0.338 -0.183,-0.65 -0.479,-0.816c-0.294,-0.164 -0.655,-0.159 -0.946,0.018l-6.679,4.08c-0.102,-0.037 -0.208,-0.064 -0.323,-0.064l-24.341,0l0,-2.809c0,-0.518 -0.419,-0.937 -0.937,-0.937l-5.618,0c-0.518,0 -0.937,0.419 -0.937,0.937l0,10.3c0,0.517 0.419,0.936 0.937,0.936l5.618,0c0.518,0 0.937,-0.419 0.937,-0.936l0,-1.873l24.343,0c0.518,0 0.937,-0.419 0.937,-0.937l0,-0.939l12.171,0l0,0.937c0,0.518 0.42,0.937 0.937,0.937l3.746,0c0.517,0 0.936,-0.419 0.936,-0.937l0,-3.745c-0.002,-0.518 -0.421,-0.936 -0.938,-0.936zm-44.005,0.936l0,3.745l0,1.872l-3.745,0l0,-8.426l3.745,0l0,2.809zm25.279,2.808l-23.406,0l0,-1.873l23.406,0l0,1.873zm7.49,-1.872l-5.596,0l5.596,-3.418l0,3.418zm10.299,1.872l-1.872,0l0,-1.873l1.872,0l0,1.873z"/>
   <path fill="#ffffff" id="svg_4" d="m7.49,5.04249l13.108,0c0.415,0 0.78,-0.273 0.897,-0.671l0.937,-3.169c0.146,-0.496 -0.136,-1.017 -0.633,-1.163c-0.499,-0.149 -1.017,0.137 -1.163,0.633l-0.738,2.498l-12.408,0c-0.518,0 -0.937,0.419 -0.937,0.936c0.001,0.517 0.42,0.936 0.937,0.936z"/>
   <path fill="#ffffff" id="svg_5" d="m0.937,5.04249l3.745,0c0.518,0 0.937,-0.419 0.937,-0.937c0,-0.517 -0.419,-0.936 -0.937,-0.936l-3.745,0c-0.518,0 -0.937,0.419 -0.937,0.936c0,0.518 0.418,0.937 0.937,0.937z"/>
  </g>
 </g>
</svg>